# xmcd CD database file generated by OrangeCD 6.5
#
# Track frame offsets:
#	150
#	16729
#	35160
#	50728
#	68329
#	81906
#	96792
#	113217
#	128921
#	140891
#	160118
#	175831
#	191610
#	209807
#	222794
#
# Disc length: 3185 seconds
#
# Revision: 1
# Processed by: cddbd v1.5.2PL0 Copyright (c) Steve Scherf et al.
# Submitted via: OrangeCD 6.5
#
DISCID=db0c6f0f
DTITLE=Irek Dudek - Dudek Bluesy
DYEAR=1900
DGENRE=Blues
TTITLE0=Spadam Stad
TTITLE1=Zwykly Blues
TTITLE2=Golebie Znad Katowic
TTITLE3=Snij
TTITLE4=Fan
TTITLE5=Mowa Drzew
TTITLE6=Dam Rade
TTITLE7=Kraty
TTITLE8=Kazdy Chce Miec Lepiej
TTITLE9=Niby Zwykly Cien
TTITLE10=Zegnaj, Szkoda Slow
TTITLE11=Bojcie Sie
TTITLE12=Na Bank, Na Pewno
TTITLE13=Przed sklepem
TTITLE14=Blues Dla Dorotki
EXTD=
EXTT0=
EXTT1=
EXTT2=
EXTT3=
EXTT4=
EXTT5=
EXTT6=
EXTT7=
EXTT8=
EXTT9=
EXTT10=
EXTT11=
EXTT12=
EXTT13=
EXTT14=
PLAYORDER=
